<?xml version="1.0" encoding="UTF-8" standalone="no"?>
<!DOCTYPE svg PUBLIC "-//W3C//DTD SVG 1.1//EN"
 "http://www.w3.org/Graphics/SVG/1.1/DTD/svg11.dtd">
<!-- Generated by graphviz version 2.43.0 (0)
 -->
<!-- Title: %3 Pages: 1 -->
<svg width="734pt" height="609pt"
 viewBox="0.00 0.00 734.22 609.43" xmlns="http://www.w3.org/2000/svg" xmlns:xlink="http://www.w3.org/1999/xlink">
<g id="graph0" class="graph" transform="scale(1 1) rotate(0) translate(4 605.43)">
<title>%3</title>
<polygon fill="white" stroke="transparent" points="-4,4 -4,-605.43 730.22,-605.43 730.22,4 -4,4"/>
<!-- A -->
<g id="node1" class="node">
<title>A</title>
<polygon fill="aqua" stroke="black" points="726.22,-390.71 672.22,-390.71 672.22,-354.71 726.22,-354.71 726.22,-390.71"/>
<text text-anchor="middle" x="699.22" y="-369.01" font-family="Times,serif" font-size="14.00">A</text>
</g>
<!-- B -->
<g id="node2" class="node">
<title>B</title>
<polygon fill="aqua" stroke="black" points="534.67,-564.27 495.37,-564.27 483.22,-601.65 471.08,-564.27 431.78,-564.27 463.57,-541.16 451.43,-503.78 483.22,-526.89 515.02,-503.78 502.87,-541.16 534.67,-564.27"/>
<text text-anchor="middle" x="483.22" y="-549.01" font-family="Times,serif" font-size="14.00">B</text>
</g>
<!-- B&#45;&#45;A -->
<g id="edge2" class="edge">
<title>B&#45;&#45;A</title>
<path fill="none" stroke="red" d="M505.12,-534.46C546.63,-499.88 636.28,-425.16 677.59,-390.75"/>
<text text-anchor="middle" x="584.85" y="-468.61" font-family="Times,serif" font-size="20.00">1</text>
</g>
<!-- C -->
<g id="node3" class="node">
<title>C</title>
<polygon fill="aqua" stroke="black" points="534.67,-276.27 495.37,-276.27 483.22,-313.65 471.08,-276.27 431.78,-276.27 463.57,-253.16 451.43,-215.78 483.22,-238.89 515.02,-215.78 502.87,-253.16 534.67,-276.27"/>
<text text-anchor="middle" x="483.22" y="-261.01" font-family="Times,serif" font-size="14.00">C</text>
</g>
<!-- B&#45;&#45;C -->
<g id="edge1" class="edge">
<title>B&#45;&#45;C</title>
<path fill="none" stroke="red" d="M483.22,-526.9C483.22,-478.93 483.22,-375.3 483.22,-313.66"/>
<text text-anchor="middle" x="476.72" y="-426.28" font-family="Times,serif" font-size="20.00">2</text>
</g>
<!-- D -->
<g id="node4" class="node">
<title>D</title>
<polygon fill="aqua" stroke="black" points="318.67,-276.27 279.37,-276.27 267.22,-313.65 255.08,-276.27 215.78,-276.27 247.57,-253.16 235.43,-215.78 267.22,-238.89 299.02,-215.78 286.87,-253.16 318.67,-276.27"/>
<text text-anchor="middle" x="267.22" y="-261.01" font-family="Times,serif" font-size="14.00">D</text>
</g>
<!-- B&#45;&#45;D -->
<g id="edge3" class="edge">
<title>B&#45;&#45;D</title>
<path fill="none" stroke="red" d="M455.2,-515.36C407.15,-451.28 311.02,-323.12 278.37,-279.58"/>
<text text-anchor="middle" x="360.29" y="-403.47" font-family="Times,serif" font-size="20.00">9</text>
</g>
<!-- G -->
<g id="node7" class="node">
<title>G</title>
<polygon fill="aqua" stroke="black" points="138.67,-420.27 99.37,-420.27 87.22,-457.65 75.08,-420.27 35.78,-420.27 67.57,-397.16 55.43,-359.78 87.22,-382.89 119.02,-359.78 106.87,-397.16 138.67,-420.27"/>
<text text-anchor="middle" x="87.22" y="-405.01" font-family="Times,serif" font-size="14.00">G</text>
</g>
<!-- B&#45;&#45;G -->
<g id="edge4" class="edge">
<title>B&#45;&#45;G</title>
<path fill="none" stroke="red" d="M459.34,-544.03C391.2,-519.25 195.81,-448.2 118.88,-420.23"/>
<text text-anchor="middle" x="282.61" y="-466.13" font-family="Times,serif" font-size="20.00">4</text>
</g>
<!-- H -->
<g id="node8" class="node">
<title>H</title>
<polygon fill="aqua" stroke="black" points="318.67,-564.27 279.37,-564.27 267.22,-601.65 255.08,-564.27 215.78,-564.27 247.57,-541.16 235.43,-503.78 267.22,-526.89 299.02,-503.78 286.87,-541.16 318.67,-564.27"/>
<text text-anchor="middle" x="267.22" y="-549.01" font-family="Times,serif" font-size="14.00">H</text>
</g>
<!-- B&#45;&#45;H -->
<g id="edge5" class="edge">
<title>B&#45;&#45;H</title>
<path fill="none" stroke="red" d="M447.55,-552.71C407.53,-552.71 342.99,-552.71 302.94,-552.71"/>
<text text-anchor="middle" x="368.75" y="-558.71" font-family="Times,serif" font-size="20.00">2</text>
</g>
<!-- C&#45;&#45;A -->
<g id="edge9" class="edge">
<title>C&#45;&#45;A</title>
<path fill="none" stroke="red" d="M506.34,-276.27C546.5,-296.35 628.96,-337.58 671.89,-359.05"/>
<text text-anchor="middle" x="582.61" y="-323.66" font-family="Times,serif" font-size="20.00">4</text>
</g>
<!-- C&#45;&#45;D -->
<g id="edge10" class="edge">
<title>C&#45;&#45;D</title>
<path fill="none" stroke="red" d="M447.55,-264.71C407.53,-264.71 342.99,-264.71 302.94,-264.71"/>
<text text-anchor="middle" x="368.75" y="-270.71" font-family="Times,serif" font-size="20.00">1</text>
</g>
<!-- E -->
<g id="node5" class="node">
<title>E</title>
<polygon fill="aqua" stroke="black" points="354.67,-60.27 315.37,-60.27 303.22,-97.65 291.08,-60.27 251.78,-60.27 283.57,-37.16 271.43,0.22 303.22,-22.89 335.02,0.22 322.87,-37.16 354.67,-60.27"/>
<text text-anchor="middle" x="303.22" y="-45.01" font-family="Times,serif" font-size="14.00">E</text>
</g>
<!-- C&#45;&#45;E -->
<g id="edge11" class="edge">
<title>C&#45;&#45;E</title>
<path fill="none" stroke="red" d="M457.05,-233.31C417.27,-185.57 343.21,-96.7 314.76,-62.56"/>
<text text-anchor="middle" x="379.4" y="-153.93" font-family="Times,serif" font-size="20.00">3</text>
</g>
<!-- D&#45;&#45;G -->
<g id="edge7" class="edge">
<title>D&#45;&#45;G</title>
<path fill="none" stroke="red" d="M252.8,-276.26C221.26,-301.48 146.04,-361.66 108.83,-391.43"/>
<text text-anchor="middle" x="174.31" y="-339.84" font-family="Times,serif" font-size="20.00">1</text>
</g>
<!-- E&#45;&#45;D -->
<g id="edge12" class="edge">
<title>E&#45;&#45;D</title>
<path fill="none" stroke="red" d="M297.83,-81.05C290.87,-122.83 278.85,-194.97 272.13,-235.28"/>
<text text-anchor="middle" x="278.48" y="-164.17" font-family="Times,serif" font-size="20.00">1</text>
</g>
<!-- F -->
<g id="node6" class="node">
<title>F</title>
<polygon fill="aqua" stroke="black" points="102.67,-168.27 63.37,-168.27 51.22,-205.65 39.08,-168.27 -0.22,-168.27 31.57,-145.16 19.43,-107.78 51.22,-130.89 83.02,-107.78 70.87,-145.16 102.67,-168.27"/>
<text text-anchor="middle" x="51.22" y="-153.01" font-family="Times,serif" font-size="14.00">F</text>
</g>
<!-- E&#45;&#45;F -->
<g id="edge13" class="edge">
<title>E&#45;&#45;F</title>
<path fill="none" stroke="red" d="M276.25,-60.27C226.23,-81.71 119.94,-127.27 73.6,-147.12"/>
<text text-anchor="middle" x="168.43" y="-109.7" font-family="Times,serif" font-size="20.00">1</text>
</g>
<!-- F&#45;&#45;G -->
<g id="edge8" class="edge">
<title>F&#45;&#45;G</title>
<path fill="none" stroke="red" d="M56.08,-190.7C63.22,-240.68 76.42,-333.12 83.11,-379.94"/>
<text text-anchor="middle" x="63.09" y="-291.32" font-family="Times,serif" font-size="20.00">6</text>
</g>
<!-- H&#45;&#45;G -->
<g id="edge6" class="edge">
<title>H&#45;&#45;G</title>
<path fill="none" stroke="red" d="M245.51,-535.35C208.29,-505.57 133.29,-445.57 101.73,-420.32"/>
<text text-anchor="middle" x="160.62" y="-483.83" font-family="Times,serif" font-size="20.00">14</text>
</g>
</g>
</svg>
