<?xml version="1.0" encoding="UTF-8" standalone="no"?>
<!DOCTYPE svg PUBLIC "-//W3C//DTD SVG 1.1//EN"
 "http://www.w3.org/Graphics/SVG/1.1/DTD/svg11.dtd">
<!-- Generated by graphviz version 2.43.0 (0)
 -->
<!-- Title: %3 Pages: 1 -->
<svg width="742pt" height="598pt"
 viewBox="0.00 0.00 742.00 598.00" xmlns="http://www.w3.org/2000/svg" xmlns:xlink="http://www.w3.org/1999/xlink">
<g id="graph0" class="graph" transform="scale(1 1) rotate(0) translate(4 594)">
<title>%3</title>
<polygon fill="white" stroke="transparent" points="-4,4 -4,-594 738,-594 738,4 -4,4"/>
<!-- A -->
<g id="node1" class="node">
<title>A</title>
<polygon fill="lightgrey" stroke="transparent" points="734,-410 648,-410 648,-324 734,-324 734,-410"/>
<image xlink:href="icon_router.png" width="86px" height="58.1187px" preserveAspectRatio="xMinYMin meet" x="648" y="-396.059"/>
<text text-anchor="middle" x="691" y="-359.5" font-family="Times,serif" font-size="30.00" fill="red">A</text>
</g>
<!-- B -->
<g id="node2" class="node">
<title>B</title>
<polygon fill="lightgrey" stroke="transparent" points="518,-590 432,-590 432,-504 518,-504 518,-590"/>
<image xlink:href="icon_router.png" width="86px" height="58.1187px" preserveAspectRatio="xMinYMin meet" x="432" y="-576.059"/>
<text text-anchor="middle" x="475" y="-539.5" font-family="Times,serif" font-size="30.00" fill="red">B</text>
</g>
<!-- B&#45;&#45;A -->
<g id="edge2" class="edge">
<title>B&#45;&#45;A</title>
<path fill="none" stroke="aqua" d="M518.19,-511.01C555.86,-479.61 610.23,-434.31 647.88,-402.93"/>
<text text-anchor="middle" x="575.04" y="-464.97" font-family="Times,serif" font-size="25.00" fill="blue">1</text>
</g>
<!-- C -->
<g id="node3" class="node">
<title>C</title>
<polygon fill="lightgrey" stroke="transparent" points="518,-302 432,-302 432,-216 518,-216 518,-302"/>
<image xlink:href="icon_router.png" width="86px" height="58.1187px" preserveAspectRatio="xMinYMin meet" x="432" y="-288.059"/>
<text text-anchor="middle" x="475" y="-251.5" font-family="Times,serif" font-size="30.00" fill="red">C</text>
</g>
<!-- B&#45;&#45;C -->
<g id="edge1" class="edge">
<title>B&#45;&#45;C</title>
<path fill="none" stroke="aqua" d="M475,-503.88C475,-449.59 475,-356.84 475,-302.41"/>
<text text-anchor="middle" x="467" y="-411.15" font-family="Times,serif" font-size="25.00" fill="blue">2</text>
</g>
<!-- D -->
<g id="node4" class="node">
<title>D</title>
<polygon fill="lightgrey" stroke="transparent" points="302,-302 216,-302 216,-216 302,-216 302,-302"/>
<image xlink:href="icon_router.png" width="86px" height="58.1187px" preserveAspectRatio="xMinYMin meet" x="216" y="-288.059"/>
<text text-anchor="middle" x="259" y="-251.5" font-family="Times,serif" font-size="30.00" fill="red">D</text>
</g>
<!-- B&#45;&#45;D -->
<g id="edge3" class="edge">
<title>B&#45;&#45;D</title>
<path fill="none" stroke="aqua" d="M442.66,-503.88C401.94,-449.59 332.38,-356.84 291.56,-302.41"/>
<text text-anchor="middle" x="359.11" y="-411.15" font-family="Times,serif" font-size="25.00" fill="blue">9</text>
</g>
<!-- G -->
<g id="node7" class="node">
<title>G</title>
<polygon fill="lightgrey" stroke="transparent" points="122,-446 36,-446 36,-360 122,-360 122,-446"/>
<image xlink:href="icon_router.png" width="86px" height="58.1187px" preserveAspectRatio="xMinYMin meet" x="36" y="-432.059"/>
<text text-anchor="middle" x="79" y="-395.5" font-family="Times,serif" font-size="30.00" fill="red">G</text>
</g>
<!-- B&#45;&#45;G -->
<g id="edge4" class="edge">
<title>B&#45;&#45;G</title>
<path fill="none" stroke="aqua" d="M431.87,-531.32C355.69,-503.62 198.22,-446.35 122.08,-418.67"/>
<text text-anchor="middle" x="268.97" y="-482.99" font-family="Times,serif" font-size="25.00" fill="blue">4</text>
</g>
<!-- H -->
<g id="node8" class="node">
<title>H</title>
<polygon fill="lightgrey" stroke="transparent" points="302,-590 216,-590 216,-504 302,-504 302,-590"/>
<image xlink:href="icon_router.png" width="86px" height="58.1187px" preserveAspectRatio="xMinYMin meet" x="216" y="-576.059"/>
<text text-anchor="middle" x="259" y="-539.5" font-family="Times,serif" font-size="30.00" fill="red">H</text>
</g>
<!-- B&#45;&#45;H -->
<g id="edge5" class="edge">
<title>B&#45;&#45;H</title>
<path fill="none" stroke="aqua" d="M431.81,-547C394.14,-547 339.77,-547 302.12,-547"/>
<text text-anchor="middle" x="358.96" y="-555" font-family="Times,serif" font-size="25.00" fill="blue">2</text>
</g>
<!-- C&#45;&#45;A -->
<g id="edge9" class="edge">
<title>C&#45;&#45;A</title>
<path fill="none" stroke="aqua" d="M518.19,-280.6C555.86,-299.43 610.23,-326.62 647.88,-345.44"/>
<text text-anchor="middle" x="575.04" y="-321.02" font-family="Times,serif" font-size="25.00" fill="blue">4</text>
</g>
<!-- C&#45;&#45;D -->
<g id="edge10" class="edge">
<title>C&#45;&#45;D</title>
<path fill="none" stroke="aqua" d="M431.81,-259C394.14,-259 339.77,-259 302.12,-259"/>
<text text-anchor="middle" x="358.96" y="-267" font-family="Times,serif" font-size="25.00" fill="blue">1</text>
</g>
<!-- E -->
<g id="node5" class="node">
<title>E</title>
<polygon fill="lightgrey" stroke="transparent" points="338,-86 252,-86 252,0 338,0 338,-86"/>
<image xlink:href="icon_router.png" width="86px" height="58.1187px" preserveAspectRatio="xMinYMin meet" x="252" y="-72.0594"/>
<text text-anchor="middle" x="295" y="-35.5" font-family="Times,serif" font-size="30.00" fill="red">E</text>
</g>
<!-- C&#45;&#45;E -->
<g id="edge11" class="edge">
<title>C&#45;&#45;E</title>
<path fill="none" stroke="aqua" d="M439.01,-215.81C407.61,-178.14 362.31,-123.77 330.93,-86.12"/>
<text text-anchor="middle" x="376.97" y="-158.96" font-family="Times,serif" font-size="25.00" fill="blue">3</text>
</g>
<!-- D&#45;&#45;G -->
<g id="edge7" class="edge">
<title>D&#45;&#45;G</title>
<path fill="none" stroke="aqua" d="M215.89,-293.49C187.49,-316.21 150.46,-345.83 122.07,-368.54"/>
<text text-anchor="middle" x="160.98" y="-339.02" font-family="Times,serif" font-size="25.00" fill="blue">1</text>
</g>
<!-- E&#45;&#45;D -->
<g id="edge12" class="edge">
<title>E&#45;&#45;D</title>
<path fill="none" stroke="aqua" d="M287.8,-86.19C281.52,-123.86 272.46,-178.23 266.19,-215.88"/>
<text text-anchor="middle" x="268.99" y="-159.04" font-family="Times,serif" font-size="25.00" fill="blue">1</text>
</g>
<!-- F -->
<g id="node6" class="node">
<title>F</title>
<polygon fill="lightgrey" stroke="transparent" points="86,-194 0,-194 0,-108 86,-108 86,-194"/>
<image xlink:href="icon_router.png" width="86px" height="58.1187px" preserveAspectRatio="xMinYMin meet" x="0" y="-180.059"/>
<text text-anchor="middle" x="43" y="-143.5" font-family="Times,serif" font-size="30.00" fill="red">F</text>
</g>
<!-- E&#45;&#45;F -->
<g id="edge13" class="edge">
<title>E&#45;&#45;F</title>
<path fill="none" stroke="aqua" d="M251.97,-61.44C205.72,-81.26 132.62,-112.59 86.28,-132.45"/>
<text text-anchor="middle" x="161.12" y="-104.95" font-family="Times,serif" font-size="25.00" fill="blue">1</text>
</g>
<!-- F&#45;&#45;G -->
<g id="edge8" class="edge">
<title>F&#45;&#45;G</title>
<path fill="none" stroke="aqua" d="M49.15,-194.03C55.75,-240.28 66.2,-313.38 72.82,-359.72"/>
<text text-anchor="middle" x="52.98" y="-284.88" font-family="Times,serif" font-size="25.00" fill="blue">6</text>
</g>
<!-- H&#45;&#45;G -->
<g id="edge6" class="edge">
<title>H&#45;&#45;G</title>
<path fill="none" stroke="aqua" d="M215.89,-512.51C187.49,-489.79 150.46,-460.17 122.07,-437.46"/>
<text text-anchor="middle" x="152.98" y="-482.98" font-family="Times,serif" font-size="25.00" fill="blue">14</text>
</g>
</g>
</svg>
